# Blender v2.80 (sub 44) OBJ File: 'Window.blend'
# www.blender.org
mtllib Window.mtl
o Plane
v -0.000000 7.001750 2.001750
v 0.000000 2.998250 2.001750
v -0.000000 7.001750 -2.001750
v 0.000000 2.998250 -2.001750
v 0.500000 7.001750 2.001750
v 0.500000 2.998250 2.001750
v 0.500000 7.001750 -2.001750
v 0.500000 2.998250 -2.001750
v -0.000000 10.000000 -5.000000
v -0.000000 10.000000 5.000000
v 0.000000 0.000000 5.000000
v 0.000000 0.000000 -5.000000
v 0.500000 10.000000 -5.000000
v 0.500000 10.000000 5.000000
v 0.500000 0.000000 5.000000
v 0.500000 0.000000 -5.000000
v -0.000000 7.800000 -2.800000
v -0.000000 7.800000 2.800000
v 0.000000 2.200000 2.800000
v 0.000000 2.200000 -2.800000
v 0.500000 7.800000 -2.800000
v 0.500000 7.800000 2.800000
v 0.500000 2.200000 2.800000
v 0.500000 2.200000 -2.800000
vt 0.700175 0.299825
vt 0.700175 0.700175
vt 0.700175 0.700175
vt 0.700175 0.299825
vt 0.299825 0.299825
vt 0.700175 0.299825
vt 0.700175 0.299825
vt 0.299825 0.299825
vt 0.299825 0.700175
vt 0.220000 0.220000
vt 0.220000 0.780000
vt 0.780000 0.220000
vt 0.700175 0.700175
vt 0.780000 0.780000
vt 0.299825 0.299825
vt 0.299825 0.700175
vt 0.220000 0.780000
vt 0.220000 0.220000
vt 0.780000 0.220000
vt 0.780000 0.780000
vt 0.299825 0.700175
vt 0.700175 0.700175
vt 0.299825 0.299825
vt 0.299825 0.700175
vt 1.000000 0.000000
vt 1.000000 1.000000
vt 1.000000 1.000000
vt 1.000000 0.000000
vt 0.000000 1.000000
vt 0.000000 0.000000
vt 0.000000 0.000000
vt 0.000000 1.000000
vn 0.0000 1.0000 0.0000
vn 0.0000 0.0000 -1.0000
vn -1.0000 -0.0000 0.0000
vn 1.0000 0.0000 0.0000
vn 0.0000 0.0000 1.0000
vn 0.0000 -1.0000 0.0000
usemtl Border
s off
f 2/1/1 6/2/1 8/3/1 4/4/1
f 1/5/2 5/6/2 6/7/2 2/8/2
f 3/9/3 1/5/3 18/10/3 17/11/3
f 1/5/3 2/1/3 19/12/3 18/10/3
f 2/1/3 4/13/3 20/14/3 19/12/3
f 4/13/3 3/9/3 17/11/3 20/14/3
f 5/15/4 7/16/4 21/17/4 22/18/4
f 6/7/4 5/15/4 22/18/4 23/19/4
f 8/3/4 6/7/4 23/19/4 24/20/4
f 7/16/4 8/3/4 24/20/4 21/17/4
f 4/13/5 8/21/5 7/16/5 3/22/5
f 3/9/6 7/23/6 5/15/6 1/24/6
usemtl (null)
f 11/25/6 12/26/6 16/27/6 15/28/6
f 9/29/1 10/30/1 14/31/1 13/32/1
f 12/26/2 9/29/2 13/32/2 16/27/2
f 10/30/5 11/25/5 15/28/5 14/31/5
f 17/11/3 18/10/3 10/30/3 9/29/3
f 18/10/3 19/12/3 11/25/3 10/30/3
f 19/12/3 20/14/3 12/26/3 11/25/3
f 20/14/3 17/11/3 9/29/3 12/26/3
f 22/18/4 21/17/4 13/32/4 14/31/4
f 23/19/4 22/18/4 14/31/4 15/28/4
f 24/20/4 23/19/4 15/28/4 16/27/4
f 21/17/4 24/20/4 16/27/4 13/32/4
